<?xml version="1.0" encoding="UTF-8" standalone="no"?>
<svg
   xmlns:dc="http://purl.org/dc/elements/1.1/"
   xmlns:cc="http://creativecommons.org/ns#"
   xmlns:rdf="http://www.w3.org/1999/02/22-rdf-syntax-ns#"
   xmlns:svg="http://www.w3.org/2000/svg"
   xmlns="http://www.w3.org/2000/svg"
   xmlns:sodipodi="http://sodipodi.sourceforge.net/DTD/sodipodi-0.dtd"
   xmlns:inkscape="http://www.inkscape.org/namespaces/inkscape"
   class="texttodraw"
   width="98.509941mm"
   height="38.724186mm"
   viewBox="0 0 98.509941 32.953583"
   version="1.1"
   id="svg8"
   inkscape:version="1.0.2-2 (e86c870879, 2021-01-15)"
   sodipodi:docname="sketch.svg">
  <defs
     id="defs2" />
  <sodipodi:namedview
     id="base"
     pagecolor="#ffffff"
     bordercolor="#666666"
     borderopacity="1.0"
     inkscape:pageopacity="0.0"
     inkscape:pageshadow="2"
     inkscape:zoom="0.35"
     inkscape:cx="399.75272"
     inkscape:cy="543.26771"
     inkscape:document-units="mm"
     inkscape:current-layer="layer1"
     inkscape:document-rotation="0"
     showgrid="false"
     inkscape:window-width="1267"
     inkscape:window-height="967"
     inkscape:window-x="1094"
     inkscape:window-y="682"
     inkscape:window-maximized="0"
     fit-margin-top="0"
     fit-margin-left="0"
     fit-margin-right="0"
     fit-margin-bottom="0" />
  <metadata
     id="metadata5">
    <rdf:RDF>
      <cc:Work
         rdf:about="">
        <dc:format>image/svg+xml</dc:format>
        <dc:type
           rdf:resource="http://purl.org/dc/dcmitype/StillImage" />
        <dc:title></dc:title>
      </cc:Work>
    </rdf:RDF>
  </metadata>
  <g
     inkscape:label="Layer 1"
     inkscape:groupmode="layer"
     id="layer1"
     transform="translate(-0.06542824,-4.4270851)">
    <g
       aria-label="eggorg"
       id="text20"
       style="font-style:normal;font-variant:normal;font-weight:normal;font-stretch:normal;font-size:22.5778px;line-height:1.25;font-family:'Segoe UI';-inkscape-font-specification:'Segoe UI';fill:#000000;fill-opacity:1;stroke:none;stroke-width:0.264583"
       transform="matrix(1.4042336,-0.00466666,0.0013061,2.2471855,-0.18387102,-3.1235492)">
      <path
         class="title"
         fill-opacity="0"
         stroke="#d6d6d6"
         stroke-width="10"
         d="M 10.147097,8.4146902 H 2.1765162 q 0.044097,1.8851578 1.0142371,2.9104198 0.9701399,1.025261 2.6678847,1.025261 1.9072068,0 3.5057327,-1.256772 v 1.697745 q -1.4882827,1.080383 -3.9356811,1.080383 -2.3922767,0 -3.759292,-1.53238 -1.36701525,-1.543404 -1.36701525,-4.3325565 0,-2.6348117 1.48828275,-4.2884592 1.4993071,-1.6646719 3.7151948,-1.6646719 2.2158876,0 3.4285625,1.4331612 1.2126746,1.4331612 1.2126746,3.9797784 z M 8.295012,6.8823102 Q 8.2839877,5.3168572 7.5343342,4.4459362 6.7957049,3.5750151 5.4727869,3.5750151 q -1.2788207,0 -2.1717904,0.9150183 -0.8929696,0.9150183 -1.1024317,2.3922768 z"
         style="font-style:normal;font-variant:normal;font-weight:normal;font-stretch:normal;font-size:22.5778px;font-family:'Segoe UI';-inkscape-font-specification:'Segoe UI';stroke-width:0.264583"
         id="path22" />
      <path
         class="title"
         fill-opacity="0"
         stroke="#ffffff"
         stroke-width="3"
         d="m 22.51638,12.703149 q 0,6.217715 -5.953131,6.217715 -2.09462,0 -3.660073,-0.793751 v -1.807988 q 1.907207,1.058335 3.638025,1.058335 4.167192,0 4.167192,-4.431776 v -1.234723 h -0.0441 q -1.289845,2.160766 -3.880559,2.160766 -2.105645,0 -3.39549,-1.499307 -1.278821,-1.510331 -1.278821,-4.0459243 0,-2.8773467 1.37804,-4.5750915 1.389064,-1.6977448 3.792365,-1.6977448 2.282034,0 3.384465,1.8300366 h 0.0441 V 2.318243 H 22.51638 Z M 20.708393,8.5028847 V 6.8382129 q 0,-1.3449666 -0.915019,-2.3040822 -0.903994,-0.9591156 -2.259985,-0.9591156 -1.675696,0 -2.623787,1.2236992 -0.948091,1.2126748 -0.948091,3.4065139 0,1.8851578 0.903994,3.0206628 0.915018,1.12448 2.414325,1.12448 1.521356,0 2.469447,-1.080383 0.959116,-1.080383 0.959116,-2.7671033 z"
         style="font-style:normal;font-variant:normal;font-weight:normal;font-stretch:normal;font-size:22.5778px;font-family:'Segoe UI';-inkscape-font-specification:'Segoe UI';stroke-width:0.264583"
         id="path24" />
      <path
         class="title"
         fill-opacity="0"
         stroke="#ffffff"
         stroke-width="3"
         d="m 35.811707,12.703149 q 0,6.217715 -5.953131,6.217715 -2.094621,0 -3.660074,-0.793751 v -1.807988 q 1.907207,1.058335 3.638025,1.058335 4.167192,0 4.167192,-4.431776 v -1.234723 h -0.0441 q -1.289845,2.160766 -3.880559,2.160766 -2.105645,0 -3.39549,-1.499307 -1.27882,-1.510331 -1.27882,-4.0459243 0,-2.8773467 1.378039,-4.5750915 1.389064,-1.6977448 3.792365,-1.6977448 2.282034,0 3.384465,1.8300366 h 0.0441 V 2.318243 h 1.807988 z M 34.003719,8.5028847 V 6.8382129 q 0,-1.3449666 -0.915019,-2.3040822 -0.903994,-0.9591156 -2.259984,-0.9591156 -1.675697,0 -2.623788,1.2236992 -0.948091,1.2126748 -0.948091,3.4065139 0,1.8851578 0.903994,3.0206628 0.915018,1.12448 2.414325,1.12448 1.521356,0 2.469447,-1.080383 0.959116,-1.080383 0.959116,-2.7671033 z"
         style="font-style:normal;font-variant:normal;font-weight:normal;font-stretch:normal;font-size:22.5778px;font-family:'Segoe UI';-inkscape-font-specification:'Segoe UI';stroke-width:0.264583"
         id="path26" />
      <path
         class="title"
         fill-opacity="0"
         stroke="#d6d6d6"
         stroke-width="10"
         d="m 44.19019,13.871727 q -2.50252,0 -4.001827,-1.576477 -1.488283,-1.587502 -1.488283,-4.200265 0,-2.8442737 1.554428,-4.4427996 1.554429,-1.598526 4.200265,-1.598526 2.524569,0 3.935681,1.5544287 1.422137,1.5544287 1.422137,4.3105078 0,2.7009581 -1.53238,4.3325561 -1.521356,1.620575 -4.090021,1.620575 z M 44.322481,3.5750151 q -1.741842,0 -2.756079,1.1906263 -1.014237,1.1796018 -1.014237,3.2631977 0,2.0064259 1.025261,3.1639789 1.025262,1.157553 2.745055,1.157553 1.752867,0 2.689934,-1.135504 0.948091,-1.135505 0.948091,-3.2301252 0,-2.1166688 -0.948091,-3.2631977 -0.937067,-1.146529 -2.689934,-1.146529 z"
         style="font-style:normal;font-variant:normal;font-weight:normal;font-stretch:normal;font-size:22.5778px;font-family:'Segoe UI';-inkscape-font-specification:'Segoe UI';stroke-width:0.264583"
         id="path28" />
      <path
         class="title"
         fill-opacity="0"
         stroke="#ffffff"
         stroke-width="3"
         d="m 58.587947,4.1482796 q -0.474046,-0.3638024 -1.367016,-0.3638024 -1.157553,0 -1.94028,1.0914073 -0.771702,1.0914074 -0.771702,2.9765655 v 5.754693 h -1.807988 v -11.2889 h 1.807988 v 2.3261309 h 0.0441 Q 54.9389,3.4537477 55.73265,2.7922886 q 0.793751,-0.6724833 1.774915,-0.6724833 0.705557,0 1.080384,0.1543405 z"
         style="font-style:normal;font-variant:normal;font-weight:normal;font-stretch:normal;font-size:22.5778px;font-family:'Segoe UI';-inkscape-font-specification:'Segoe UI';stroke-width:0.264583"
         id="path30" />
      <path
         class="title"
         fill-opacity="0"
         stroke="#ffffff"
         stroke-width="3"
         d="m 70.185526,12.703149 q 0,6.217715 -5.953131,6.217715 -2.09462,0 -3.660073,-0.793751 v -1.807988 q 1.907207,1.058335 3.638024,1.058335 4.167192,0 4.167192,-4.431776 v -1.234723 h -0.0441 q -1.289845,2.160766 -3.88056,2.160766 -2.105644,0 -3.395489,-1.499307 -1.278821,-1.510331 -1.278821,-4.0459243 0,-2.8773467 1.37804,-4.5750915 1.389064,-1.6977448 3.792365,-1.6977448 2.282033,0 3.384465,1.8300366 h 0.0441 V 2.318243 h 1.807988 z M 68.377538,8.5028847 V 6.8382129 q 0,-1.3449666 -0.915018,-2.3040822 -0.903994,-0.9591156 -2.259985,-0.9591156 -1.675696,0 -2.623788,1.2236992 -0.948091,1.2126748 -0.948091,3.4065139 0,1.8851578 0.903994,3.0206628 0.915018,1.12448 2.414326,1.12448 1.521355,0 2.469447,-1.080383 0.959115,-1.080383 0.959115,-2.7671033 z"
         style="font-style:normal;font-variant:normal;font-weight:normal;font-stretch:normal;font-size:22.5778px;font-family:'Segoe UI';-inkscape-font-specification:'Segoe UI';stroke-width:0.264583"
         id="path32" />
    </g>
  </g>
  <style
     id="style21">
      .texttodraw {
   		position: relative;
   		width: 10em;  
   		height: 17em;
   	}
      .title {
		stroke-dasharray: 500;
				stroke-dashoffset: 500;
		animation: draw 5s linear forwards;
		-webkit-animation: draw 8s linear forwards;
		-moz-animation: draw 8s linear forwards;
		-o-animation: draw 8s linear forwards;
		font-weight: bold;
		font-family: Amatic SC;
		-inkscape-font-specification: Amatic SC Bold&quot;
		}
		@keyframes draw {
		to {
			stroke-dashoffset: 0;
			}
		}
		@-webkit-keyframes draw {
		to {
			stroke-dashoffset: 0;
			}
		}
		
		@-moz-keyframes draw {
		to {
			stroke-dashoffset: 0;
			}
		}
		@-o-keyframes draw {
		to {
			stroke-dashoffset: 0;
			}
		}
  </style>
</svg>
